<svg width="360" height="360" viewBox="0 0 360 360" fill="none" xmlns="http://www.w3.org/2000/svg">
<mask id="path-1-inside-1_106_60" fill="current">
<path fill-rule="evenodd" clip-rule="evenodd" d="M292.177 0L360 67.8226V292.558L292.558 360H67.8226L0 292.177V68.2037L68.2037 0H292.177Z"/>
</mask>
<path fill-rule="evenodd" clip-rule="evenodd" d="M292.177 0L360 67.8226V292.558L292.558 360H67.8226L0 292.177V68.2037L68.2037 0H292.177Z" fill="white"/>
<path d="M292.177 0L292.884 -0.707107L292.592 -1H292.177V0ZM360 67.8226H361V67.4084L360.707 67.1155L360 67.8226ZM360 292.558L360.707 293.266L361 292.973V292.558H360ZM292.558 360V361H292.973L293.266 360.707L292.558 360ZM67.8226 360L67.1155 360.707L67.4084 361H67.8226V360ZM0 292.177H-1V292.592L-0.707107 292.884L0 292.177ZM0 68.2037L-0.707107 67.4966L-1 67.7895V68.2037H0ZM68.2037 0V-1H67.7895L67.4966 -0.707107L68.2037 0ZM291.47 0.707107L359.293 68.5297L360.707 67.1155L292.884 -0.707107L291.47 0.707107ZM361 292.558V67.8226H359V292.558H361ZM293.266 360.707L360.707 293.266L359.293 291.851L291.851 359.293L293.266 360.707ZM67.8226 361H292.558V359H67.8226V361ZM-0.707107 292.884L67.1155 360.707L68.5297 359.293L0.707107 291.47L-0.707107 292.884ZM-1 68.2037V292.177H1V68.2037H-1ZM67.4966 -0.707107L-0.707107 67.4966L0.707107 68.9108L68.9108 0.707107L67.4966 -0.707107ZM292.177 -1H68.2037V1H292.177V-1Z" fill="current" mask="url(#path-1-inside-1_106_60)"/>
</svg>
